<svg width="16" height="16" viewBox="0 0 16 16" fill="none" xmlns="http://www.w3.org/2000/svg">
<path d="M7.99993 8C8.66297 8 9.29886 7.73661 9.7677 7.26777C10.2365 6.79893 10.4999 6.16304 10.4999 5.5C10.4999 4.83696 10.2365 4.20107 9.7677 3.73223C9.29886 3.26339 8.66297 3 7.99993 3C7.33689 3 6.701 3.26339 6.23216 3.73223C5.76332 4.20107 5.49993 4.83696 5.49993 5.5C5.49993 6.16304 5.76332 6.79893 6.23216 7.26777C6.701 7.73661 7.33689 8 7.99993 8ZM3.15593 11.763C3.31593 11.134 3.59593 10.553 3.96893 10.043C3.42641 9.93925 2.8648 10.0181 2.37181 10.2672C1.87882 10.5163 1.48222 10.9217 1.24393 11.42C1.10793 11.707 1.34593 12 1.66193 12H3.11093C3.12093 11.923 3.13593 11.844 3.15593 11.763ZM12.8469 11.763C12.8669 11.843 12.8829 11.923 12.8929 12H14.3389C14.6549 12 14.8929 11.707 14.7559 11.421C14.5179 10.9231 14.1219 10.5179 13.6295 10.2686C13.1371 10.0194 12.5761 9.94004 12.0339 10.043C12.4079 10.553 12.6869 11.133 12.8469 11.763ZM13.9999 7.5C13.9999 7.69698 13.9611 7.89204 13.8857 8.07403C13.8104 8.25601 13.6999 8.42137 13.5606 8.56066C13.4213 8.69995 13.2559 8.81044 13.074 8.88582C12.892 8.9612 12.6969 9 12.4999 9C12.3029 9 12.1079 8.9612 11.9259 8.88582C11.7439 8.81044 11.5786 8.69995 11.4393 8.56066C11.3 8.42137 11.1895 8.25601 11.1141 8.07403C11.0387 7.89204 10.9999 7.69698 10.9999 7.5C10.9999 7.10218 11.158 6.72064 11.4393 6.43934C11.7206 6.15804 12.1021 6 12.4999 6C12.8978 6 13.2793 6.15804 13.5606 6.43934C13.8419 6.72064 13.9999 7.10218 13.9999 7.5ZM3.49993 9C3.89775 9 4.27929 8.84196 4.56059 8.56066C4.84189 8.27936 4.99993 7.89782 4.99993 7.5C4.99993 7.10218 4.84189 6.72064 4.56059 6.43934C4.27929 6.15804 3.89775 6 3.49993 6C3.1021 6 2.72057 6.15804 2.43927 6.43934C2.15796 6.72064 1.99993 7.10218 1.99993 7.5C1.99993 7.89782 2.15796 8.27936 2.43927 8.56066C2.72057 8.84196 3.1021 9 3.49993 9ZM4.99993 13C4.44793 13 3.98693 12.545 4.12393 12.01C4.34464 11.1495 4.84537 10.387 5.54721 9.84244C6.24905 9.29791 7.11212 9.00236 8.00043 9.00236C8.88874 9.00236 9.75181 9.29791 10.4536 9.84244C11.1555 10.387 11.6562 11.1495 11.8769 12.01C12.0129 12.545 11.5529 13 10.9999 13H4.99993Z" fill="black" fill-opacity="0.8"/>
</svg>
